<svg xmlns="http://www.w3.org/2000/svg" viewBox="0 0 56.69 56.69"><defs><style>.cls-1{fill:#1e3160;}.cls-2,.cls-3{fill:#fff;stroke:#fff;stroke-miterlimit:10;}.cls-2{stroke-width:0.75px;}.cls-3{stroke-linecap:round;stroke-width:2px;}</style></defs><g id="Layer_2" data-name="Layer 2"><g id="Layer_1-2" data-name="Layer 1"><circle class="cls-1" cx="28.35" cy="28.35" r="28.35"/><path class="cls-2" d="M46,15.31c-.71,2.12-1.41,4.24-2.12,6.36-.07.2-.14.4-.2.6A1.83,1.83,0,0,1,42,23.64a.43.43,0,0,0-.28.18c-.42,1.22-.83,2.45-1.25,3.72l1.7.58.8.28a2.94,2.94,0,0,1,1.79,3.65,19.75,19.75,0,0,1-3.41,7,.59.59,0,0,0,0,.08,14,14,0,0,1,1.43.61,5.77,5.77,0,0,1,3.05,4.68c0,.41-.11.66-.42.71s-.59-.16-.61-.59a4.77,4.77,0,0,0-3.92-4.41,4.67,4.67,0,0,0-1-.08c-.45,0-.58-.08-.7-.52a5.33,5.33,0,0,0-4.44-4.07,5.08,5.08,0,0,0-3.45.6c-.51.28-.67.24-1-.24A7.58,7.58,0,0,0,16.5,38.64c0,.13,0,.26-.07.39-.08.41-.22.55-.64.55a5.09,5.09,0,0,0-5,4.9,1.09,1.09,0,0,1,0,.18.48.48,0,0,1-.53.48.47.47,0,0,1-.47-.52,5.69,5.69,0,0,1,.73-2.88,6,6,0,0,1,4.68-3.14l.29-.05a8.55,8.55,0,0,1,4.89-6.29,8.43,8.43,0,0,1,8,.36,16.45,16.45,0,0,1,.3-1.69c.38-1.37.75-2.75,1.24-4.08a2.91,2.91,0,0,1,3.6-1.66c.82.26,1.63.54,2.47.83l1.31-3.86a7.08,7.08,0,0,1-.58-.69A1.67,1.67,0,0,1,36.49,20c.72-2.15,1.43-4.31,2.17-6.46a3.78,3.78,0,0,1,7.28.5.46.46,0,0,0,.07.16ZM35.59,27c-.65-.21-1.28-.38-1.87-.63-1.57-.67-2.73-.05-3.22,1.58A23.32,23.32,0,0,0,29.33,33c0,.13,0,.31.07.38.55.52,1.13,1,1.76,1.57a6.22,6.22,0,0,1,5.27,0A6.48,6.48,0,0,1,40.07,39l.5-.61a19.1,19.1,0,0,0,3.23-6.7,1.83,1.83,0,0,0-.92-2.2c-.88-.39-1.8-.66-2.73-1-.07.17-.12.29-.16.41-.23.68-.45,1.38-.71,2.06a2.38,2.38,0,0,1-2.22,1.53,2.41,2.41,0,0,1-2.22-3.29C35.09,28.48,35.33,27.74,35.59,27Zm7.55-6.37c0-.06.06-.08.07-.12.55-1.64,1.14-3.28,1.65-4.95a2.75,2.75,0,0,0-5.24-1.67c-.27.76-.52,1.53-.78,2.3s-.59,1.78-.9,2.69Zm-2.35,2.74-2.61-.87c-.44,1.32-.87,2.59-1.3,3.86-.37,1.1-.75,2.2-1.11,3.31a1.36,1.36,0,0,0,.85,1.74,1.34,1.34,0,0,0,1.73-.81C39.17,28.19,40,25.79,40.79,23.35Zm2.05-1.76-5.22-1.76a4.63,4.63,0,0,0-.18.52.78.78,0,0,0,.51,1c1.24.43,2.49.84,3.74,1.25a.75.75,0,0,0,1-.44C42.72,22,42.77,21.8,42.84,21.59Z"/><path class="cls-2" d="M24.66,39.66a3.21,3.21,0,0,0-2.5,1.49l-.14.21a.51.51,0,1,1-.85-.55,4.27,4.27,0,0,1,2.35-1.93,4.41,4.41,0,0,1,5.19,1.83c.23.37.2.66-.08.83s-.55.07-.79-.29A3.47,3.47,0,0,0,24.66,39.66Z"/><line class="cls-3" x1="10.26" y1="44.61" x2="27.39" y2="44.62"/><line class="cls-3" x1="31.84" y1="44.61" x2="44.99" y2="44.62"/></g></g></svg>