<svg xmlns="http://www.w3.org/2000/svg" viewBox="0 0 56.69 56.69"><defs><style>.cls-1{fill:#1e3160;}.cls-2{fill:#fff;}</style></defs><g id="Layer_2" data-name="Layer 2"><g id="Layer_1-2" data-name="Layer 1"><circle class="cls-1" cx="28.35" cy="28.35" r="28.35"/><path class="cls-2" d="M12.19,21.37c-.57-.3-1.14-.54-1.65-.87a4.61,4.61,0,0,1-1.07-.9,1.43,1.43,0,0,1,.59-2.4,7.48,7.48,0,0,1,2.44-.41,17,17,0,0,1,7.38,1.73A8.1,8.1,0,0,1,22.62,21a4.3,4.3,0,0,1,.53,3.91c-.44,1.59-1,3.15-1.37,4.76a18.09,18.09,0,0,0-.43,3.21,1.86,1.86,0,0,0,1.26,1.87,2.07,2.07,0,0,0,2.32-.56,1.31,1.31,0,0,0,.31-.7,41.08,41.08,0,0,1,1.84-9A18.9,18.9,0,0,1,30.5,18c.33-.39.7-.75,1-1.11-.49-.22-1-.4-1.47-.66a4.73,4.73,0,0,1-2.37-3.84,10,10,0,0,1,.53-4.16c.14-.42.33-.78.84-.83s.77.23,1,.62a18.48,18.48,0,0,0,5.17,5.68A9.19,9.19,0,0,0,38.76,15c3.16.63,6.3,1.34,9.44,2A.91.91,0,0,1,49,18.14a.92.92,0,0,1-1.21.63c-3-.65-6.09-1.31-9.13-2-.35-.08-.46,0-.52.32-.25,1.29-.6,2.57-.72,3.87-.18,2.13-.22,4.27-.3,6.41a18.75,18.75,0,0,0,.66,4.2c.06.3.12.6.15.9a1,1,0,0,1-1.45,1.18,2.43,2.43,0,0,1-.63-.3,9.11,9.11,0,0,1-4.39-6.52,10.51,10.51,0,0,1,.7-5.08,15.29,15.29,0,0,1,2.67-4.52l.15-.2-.06-.11a16.78,16.78,0,0,0-1.6.94,11.5,11.5,0,0,0-3.56,4.72,30.92,30.92,0,0,0-2.4,8.6A43.61,43.61,0,0,0,27,37.86a34.07,34.07,0,0,1-.27,5,7.13,7.13,0,0,1-6.82,5.89A7.28,7.28,0,0,1,12.6,44a13,13,0,0,1-.44-4.6,31.34,31.34,0,0,1,1.05-5.69A12.25,12.25,0,0,0,13,27a4.33,4.33,0,0,0-1.46-2.19,1.66,1.66,0,0,1-.42-2.07,4.07,4.07,0,0,1,.46-.75A7.51,7.51,0,0,1,12.19,21.37Zm2.21,4.14c.18.52.38,1,.52,1.48a14.91,14.91,0,0,1,0,7.21A25.89,25.89,0,0,0,14,39a19.54,19.54,0,0,0,.1,3.51,5.3,5.3,0,0,0,5.56,4.42,5.28,5.28,0,0,0,5.25-4.42,41.62,41.62,0,0,0,.24-4.61c0-.52,0-1,0-1.59l-.54.19a3.88,3.88,0,0,1-5.13-3.68,13.78,13.78,0,0,1,.59-3.89c.42-1.5.89-3,1.3-4.46a2.83,2.83,0,0,0-.09-2.1A11.27,11.27,0,0,1,14.4,25.51ZM35.72,31c-.83-4.06-.37-8,0-12a14.64,14.64,0,0,0-1.06,1.55,9.45,9.45,0,0,0-1.36,6.56A6.54,6.54,0,0,0,35.72,31ZM11.22,18.73a13.53,13.53,0,0,0,8.47,1.85A13.79,13.79,0,0,0,11.22,18.73Zm18.33-8.22c-.17,1.53-.15,2.91,1.06,3.9a5,5,0,0,0,3.59.85A21,21,0,0,1,29.55,10.51ZM18,22.61c-1-.16-2-.22-2.85-.45a1.39,1.39,0,0,0-1.39.33c-.34.3-.65.62-1,.94l.11.16A8.46,8.46,0,0,0,18,22.61Z"/></g></g></svg>