<svg xmlns="http://www.w3.org/2000/svg" viewBox="0 0 56.69 56.69"><defs><style>.cls-1{fill:#1e3160;}.cls-2{fill:#fff;stroke:#fff;stroke-miterlimit:10;stroke-width:0.25px;}</style></defs><g id="Layer_2" data-name="Layer 2"><g id="Layer_1-2" data-name="Layer 1"><circle class="cls-1" cx="28.35" cy="28.35" r="28.35"/><path class="cls-2" d="M29.6,28a12.59,12.59,0,0,0,.54-1.17,1,1,0,0,0,0-.58,5.48,5.48,0,0,1,1-5.77,7,7,0,0,1,3.63-2,6.25,6.25,0,0,1,1.12-.19.61.61,0,0,1,.68.57.62.62,0,0,1-.43.73,9.73,9.73,0,0,1-1.06.28,6.53,6.53,0,0,0-2.6,1.28,3.88,3.88,0,0,0-1.19,3.88l.44-.49a9.61,9.61,0,0,1,3.8-2.51c.52-.19.89-.06,1.07.36s0,.77-.56,1a8.39,8.39,0,0,0-4.12,3.26,3.88,3.88,0,0,0,5.32,1.6,5.46,5.46,0,0,0,2.65-2.79,9,9,0,0,1,3.59-4.25s0-.07.09-.12a12.85,12.85,0,0,0-4.42-1.45l-.52-.07a.69.69,0,0,1-.62-.82.66.66,0,0,1,.79-.58,22.57,22.57,0,0,1,3.26.72,31.6,31.6,0,0,1,3.62,1.63,1,1,0,0,1,.43.68c0,.33-.22.56-.55.66a6.47,6.47,0,0,0-4.08,3.65,8.34,8.34,0,0,1-2.32,3.18c-1.79,1.4-3.76,2-5.93,1a14.65,14.65,0,0,1-2.15-1.47,11,11,0,0,0-.89,4.35c4.35.52,7.55,2.48,8.92,6.86.48,0,1,0,1.51,0a6.52,6.52,0,0,1,6.21,5,6.93,6.93,0,0,1,.26,1,.72.72,0,0,1-.8,1H38.92c-.53,0-.83-.25-.83-.7s.29-.71.81-.71h6.61A5.26,5.26,0,0,0,43.62,42a5.67,5.67,0,0,0-4.78-1c-.61.12-1-.07-1.06-.67a7.13,7.13,0,0,0-4.43-5.49,7.23,7.23,0,0,0-7,.27c-.58.34-1.12.16-1.22-.39a.73.73,0,0,1,.41-.8,9.25,9.25,0,0,1,3-1.15l.2,0a45.52,45.52,0,0,0-1.78-9.8,21.1,21.1,0,0,1-2.19.27,5,5,0,0,1-4.55-2.53,10.44,10.44,0,0,1-1.43-6.27,12.11,12.11,0,0,1,1.37-5c.34-.68.62-1.4,1-2.06a.9.9,0,0,1,.67-.43.82.82,0,0,1,.64.47,7.09,7.09,0,0,0,4.17,4.36,7.39,7.39,0,0,1,3.32,2.94,5.25,5.25,0,0,1-1.31,7.2.63.63,0,0,0-.27.77C28.74,24.43,29.17,26.25,29.6,28Zm-3.19-6.56c0-.15-.08-.27-.12-.4a22.12,22.12,0,0,0-2.07-4.37c-.32-.53-.27-.95.13-1.19s.79-.1,1.08.43c.46.82.92,1.64,1.33,2.49s.63,1.51.94,2.26a3.89,3.89,0,0,0,1-5.12,6.33,6.33,0,0,0-3-2.64,8.41,8.41,0,0,1-3-2.19c-.37-.42-.68-.88-1-1.32a11.24,11.24,0,0,0-1.55,6.2A8.06,8.06,0,0,0,21.35,20,4.09,4.09,0,0,0,26.41,21.47Z"/><path class="cls-2" d="M11.79,45.05H35.94a.71.71,0,1,1,0,1.41h-.31c-8.21,0-16.42,0-24.63,0-1,0-1.19-.59-.88-1.3a7.92,7.92,0,0,1,5.5-4.93,10.2,10.2,0,0,1,1.75-.2.66.66,0,0,0,.57-.31,4.59,4.59,0,0,1,3.41-2,.71.71,0,0,0,.41-.25c.42-.48.8-1,1.23-1.46a.69.69,0,0,1,1.08-.09c.31.3.29.67,0,1.06-.48.58-1,1.17-1.4,1.77a.94.94,0,0,1-.78.4,3.15,3.15,0,0,0-3,1.81,1,1,0,0,1-1.08.56,6.09,6.09,0,0,0-5.79,3,3.9,3.9,0,0,0-.19.35A.7.7,0,0,0,11.79,45.05Z"/><path class="cls-2" d="M27.15,36.3a.7.7,0,0,1,.67.68.69.69,0,0,1-1.37,0A.7.7,0,0,1,27.15,36.3Z"/><path class="cls-2" d="M34.62,37a.67.67,0,0,1-.7.64.68.68,0,0,1-.67-.68.69.69,0,0,1,1.37,0Z"/><path class="cls-2" d="M29.89,39a.67.67,0,1,1,0,1.33.68.68,0,0,1-.67-.68A.69.69,0,0,1,29.89,39Z"/><path class="cls-2" d="M36.64,43.15a.7.7,0,0,1-.7.66.68.68,0,0,1-.66-.69.66.66,0,0,1,.69-.64A.66.66,0,0,1,36.64,43.15Z"/><path class="cls-2" d="M41.64,43.12a.68.68,0,0,1-.66.68.66.66,0,1,1,0-1.32A.66.66,0,0,1,41.64,43.12Z"/><path class="cls-2" d="M25.78,41.79a.68.68,0,0,1,.67.67.66.66,0,0,1-.67.66.68.68,0,0,1-.68-.66A.69.69,0,0,1,25.78,41.79Z"/><path class="cls-2" d="M18.34,43.81a.69.69,0,0,1-.67-.68.66.66,0,0,1,.68-.65.65.65,0,0,1,.67.66A.68.68,0,0,1,18.34,43.81Z"/></g></g></svg>